# xmcd
#
# Track frame offsets: 
#        150
#        13737
#        27709
#        52331
#        64241
#        77873
#        90212
#        107318
#        121289
#        137007
#        151920
#        167409
#        178812
#        190368
#        203239
#        229427
#        243833
#        258437
#        276563
#        293021
#
# Disc length: 4092 seconds
#
# Revision: 0
# Processed by: cddbd v1.5.2PL0 Copyright (c) Steve Scherf et al.
# Submitted via: ExactAudioCopy v1.1
#
DISCID=200ffa14
DTITLE=Various Artist - De Pré Historie - De Jaren '70 Vol. 2 - De Ultieme 10
DTITLE=CD Collectie - 1975
DYEAR=2019
DGENRE=Top 40
TTITLE0=Queen - Killer Queen
TTITLE1=Roger Glover And Guests - Love Is All
TTITLE2=Status Quo - Roll Over Lay Down (Live)
TTITLE3=Tammy Wynette - Stand By Your Man
TTITLE4=Brotherhood Of Man - Kiss Me, Kiss Your Baby
TTITLE5=5000 Volts - I'm On Fire
TTITLE6=Shirley And Company - Shame, Shame, Shame
TTITLE7=Joey Dyser - 100 Years
TTITLE8=The Trammps - Shout
TTITLE9=The Rubettes - I Can Do It
TTITLE10=Claire - Vreemde Vogels
TTITLE11=Billy Swan - Everything's The Same (Ain't Nothing Changed)
TTITLE12=Freddy Fender - Before The Next Teardrop Falls
TTITLE13=Black Blood - A.I.E. (A Mwana)
TTITLE14=B.T. Express - Do It ('Til You're Satisfied)
TTITLE15=The Stylistics - Can't Give You Anything (But My Love)
TTITLE16=Johnny Nash - Tears On My Pillow
TTITLE17=Joe Harris - Drink Rode Wijn
TTITLE18=Roger Whittaker - The Last Farewell
TTITLE19=Johnny and Orquesta Rodrigues - Hey Mal Yo
EXTD=
EXTT0=
EXTT1=
EXTT2=
EXTT3=
EXTT4=
EXTT5=
EXTT6=
EXTT7=
EXTT8=
EXTT9=
EXTT10=
EXTT11=
EXTT12=
EXTT13=
EXTT14=
EXTT15=
EXTT16=
EXTT17=
EXTT18=
EXTT19=
PLAYORDER=
